<svg width="25" height="24" viewBox="0 0 25 24" fill="none" xmlns="http://www.w3.org/2000/svg">
<g id="road-map-line">
<path id="Vector" d="M4.7998 6.143V18.967L9.8648 16.797L15.8648 19.797L20.7998 17.68V4.857L22.1028 4.299C22.1789 4.26638 22.2619 4.25317 22.3443 4.26054C22.4268 4.26791 22.5061 4.29564 22.5752 4.34124C22.6443 4.38684 22.701 4.44888 22.7402 4.5218C22.7794 4.59471 22.7999 4.67622 22.7998 4.759V19L15.7998 22L9.7998 19L3.4968 21.701C3.42072 21.7336 3.33772 21.7468 3.25527 21.7395C3.17282 21.7321 3.09348 21.7044 3.02439 21.6588C2.9553 21.6132 2.89861 21.5511 2.85941 21.4782C2.82021 21.4053 2.79973 21.3238 2.7998 21.241V7L4.7998 6.143ZM17.0428 11.243L12.7998 15.485L8.5568 11.243C7.71779 10.4038 7.14645 9.33474 6.91502 8.17089C6.68359 7.00703 6.80247 5.80068 7.25662 4.70438C7.71078 3.60808 8.47982 2.67107 9.46649 2.01183C10.4532 1.35259 11.6132 1.00072 12.7998 1.00072C13.9864 1.00072 15.1464 1.35259 16.1331 2.01183C17.1198 2.67107 17.8888 3.60808 18.343 4.70438C18.7971 5.80068 18.916 7.00703 18.6846 8.17089C18.4532 9.33474 17.8818 10.4038 17.0428 11.243ZM12.7998 12.657L15.6278 9.828C16.1873 9.26864 16.5684 8.55591 16.7229 7.77995C16.8773 7.00399 16.7982 6.19966 16.4954 5.46869C16.1927 4.73771 15.68 4.11293 15.0222 3.67335C14.3644 3.23377 13.591 2.99914 12.7998 2.99914C12.0086 2.99914 11.2352 3.23377 10.5774 3.67335C9.91958 4.11293 9.40689 4.73771 9.10417 5.46869C8.80146 6.19966 8.72231 7.00399 8.87675 7.77995C9.03119 8.55591 9.41227 9.26864 9.9718 9.828L12.7998 12.657Z" fill="#F2F5F7" fill-opacity="0.7"/>
</g>
</svg>
