<svg width="25" height="24" viewBox="0 0 25 24" fill="none" xmlns="http://www.w3.org/2000/svg">
<g id="account-circle-line">
<path id="Vector" d="M12.5999 22C7.07685 22 2.59985 17.523 2.59985 12C2.59985 6.477 7.07685 2 12.5999 2C18.1229 2 22.5999 6.477 22.5999 12C22.5999 17.523 18.1229 22 12.5999 22ZM7.61285 18.256C9.0284 19.3877 10.7875 20.0029 12.5999 20C14.5699 20 16.3729 19.288 17.7669 18.108C17.1156 17.4397 16.3369 16.9089 15.4769 16.5468C14.6169 16.1847 13.693 15.9988 12.7599 16C11.7924 15.9989 10.8354 16.1989 9.94932 16.5872C9.06328 16.9756 8.26763 17.5439 7.61285 18.256ZM6.21585 16.82C7.05631 15.9281 8.07052 15.2177 9.19599 14.7327C10.3215 14.2477 11.5343 13.9984 12.7599 14C13.9415 13.9985 15.1118 14.2304 16.2036 14.6824C17.2954 15.1344 18.2871 15.7976 19.1219 16.634C19.9779 15.4291 20.4835 14.0106 20.5824 12.5359C20.6814 11.0612 20.3698 9.58789 19.6823 8.27946C18.9949 6.97102 17.9584 5.87862 16.6878 5.12345C15.4173 4.36827 13.9623 3.97984 12.4845 4.00125C11.0066 4.02267 9.56351 4.45308 8.31537 5.24476C7.06723 6.03643 6.06281 7.1584 5.41355 8.4862C4.76428 9.814 4.49555 11.2957 4.63717 12.7669C4.77879 14.2382 5.32523 15.6414 6.21585 16.821V16.82ZM12.5999 13C11.539 13 10.5216 12.5786 9.77143 11.8284C9.02128 11.0783 8.59985 10.0609 8.59985 9C8.59985 7.93913 9.02128 6.92172 9.77143 6.17157C10.5216 5.42143 11.539 5 12.5999 5C13.6607 5 14.6781 5.42143 15.4283 6.17157C16.1784 6.92172 16.5999 7.93913 16.5999 9C16.5999 10.0609 16.1784 11.0783 15.4283 11.8284C14.6781 12.5786 13.6607 13 12.5999 13ZM12.5999 11C13.1303 11 13.639 10.7893 14.0141 10.4142C14.3891 10.0391 14.5999 9.53043 14.5999 9C14.5999 8.46957 14.3891 7.96086 14.0141 7.58579C13.639 7.21071 13.1303 7 12.5999 7C12.0694 7 11.5607 7.21071 11.1856 7.58579C10.8106 7.96086 10.5999 8.46957 10.5999 9C10.5999 9.53043 10.8106 10.0391 11.1856 10.4142C11.5607 10.7893 12.0694 11 12.5999 11Z" fill="#F2F5F7" fill-opacity="0.7"/>
</g>
</svg>
