<svg width="25" height="24" viewBox="0 0 25 24" fill="none" xmlns="http://www.w3.org/2000/svg">
<g id="compass-3-line">
<path id="Vector" d="M12.2 22C6.67695 22 2.19995 17.523 2.19995 12C2.19995 6.477 6.67695 2 12.2 2C17.723 2 22.2 6.477 22.2 12C22.2 17.523 17.723 22 12.2 22ZM12.2 20C14.3217 20 16.3565 19.1571 17.8568 17.6569C19.3571 16.1566 20.2 14.1217 20.2 12C20.2 9.87827 19.3571 7.84344 17.8568 6.34315C16.3565 4.84285 14.3217 4 12.2 4C10.0782 4 8.04339 4.84285 6.5431 6.34315C5.04281 7.84344 4.19995 9.87827 4.19995 12C4.19995 14.1217 5.04281 16.1566 6.5431 17.6569C8.04339 19.1571 10.0782 20 12.2 20ZM16.7 7.5L14.2 14L7.69995 16.5L10.2 10L16.7 7.5ZM12.2 13C12.4652 13 12.7195 12.8946 12.9071 12.7071C13.0946 12.5196 13.2 12.2652 13.2 12C13.2 11.7348 13.0946 11.4804 12.9071 11.2929C12.7195 11.1054 12.4652 11 12.2 11C11.9347 11 11.6804 11.1054 11.4928 11.2929C11.3053 11.4804 11.2 11.7348 11.2 12C11.2 12.2652 11.3053 12.5196 11.4928 12.7071C11.6804 12.8946 11.9347 13 12.2 13Z" fill="#F2F5F7" fill-opacity="0.7"/>
</g>
</svg>
