<svg width="332" height="28" viewBox="0 0 332 28" fill="none" xmlns="http://www.w3.org/2000/svg">
<g filter="url(#filter0_d_1227_4317)">
<rect x="4" y="6.5" width="324" height="13" rx="6.5" fill="url(#paint0_linear_1227_4317)" fill-opacity="0.2" shape-rendering="crispEdges"/>
<rect opacity="0.8" x="4" y="6.5" width="120" height="13" rx="6.5" fill="url(#paint1_linear_1227_4317)"/>
</g>
<rect x="20.1786" y="4.17857" width="19.6429" height="19.6429" rx="2.67857" fill="#262626"/>
<rect x="20.1786" y="4.17857" width="19.6429" height="19.6429" rx="2.67857" stroke="url(#paint2_linear_1227_4317)" stroke-width="0.357143"/>
<path d="M28.6667 16.1144L34.7947 9.98569L35.7381 10.9284L28.6667 17.9997L24.4241 13.757L25.3667 12.8144L28.6667 16.1144Z" fill="url(#paint3_linear_1227_4317)"/>
<rect x="55.1786" y="4.17857" width="19.6429" height="19.6429" rx="2.67857" fill="#262626"/>
<rect x="55.1786" y="4.17857" width="19.6429" height="19.6429" rx="2.67857" stroke="url(#paint4_linear_1227_4317)" stroke-width="0.357143"/>
<path d="M63.6667 16.1144L69.7947 9.98569L70.7381 10.9284L63.6667 17.9997L59.4241 13.757L60.3667 12.8144L63.6667 16.1144Z" fill="url(#paint5_linear_1227_4317)"/>
<rect x="90.1786" y="4.17857" width="19.6429" height="19.6429" rx="2.67857" fill="#262626"/>
<rect x="90.1786" y="4.17857" width="19.6429" height="19.6429" rx="2.67857" stroke="url(#paint6_linear_1227_4317)" stroke-width="0.357143"/>
<path d="M98.6667 16.1144L104.795 9.98569L105.738 10.9284L98.6667 17.9997L94.4241 13.757L95.3667 12.8144L98.6667 16.1144Z" fill="url(#paint7_linear_1227_4317)"/>
<rect x="125.179" y="4.17857" width="19.6429" height="19.6429" rx="2.67857" fill="#262626"/>
<rect x="125.179" y="4.17857" width="19.6429" height="19.6429" rx="2.67857" stroke="url(#paint8_linear_1227_4317)" stroke-width="0.357143"/>
<path d="M139.571 14V19.3714C139.571 19.5608 139.418 19.7143 139.228 19.7143H130.771C130.582 19.7143 130.428 19.5608 130.428 19.3714V14" stroke="url(#paint9_linear_1227_4317)" stroke-width="0.857143" stroke-linecap="round" stroke-linejoin="round"/>
<path d="M140.371 11.1429H129.629C129.439 11.1429 129.286 11.2964 129.286 11.4857V13.6571C129.286 13.8465 129.439 14 129.629 14H140.371C140.561 14 140.714 13.8465 140.714 13.6571V11.4857C140.714 11.2964 140.561 11.1429 140.371 11.1429Z" stroke="url(#paint10_linear_1227_4317)" stroke-width="0.857143" stroke-linecap="round" stroke-linejoin="round"/>
<path d="M135 19.7143V11.1429" stroke="url(#paint11_linear_1227_4317)" stroke-width="0.857143" stroke-linecap="round" stroke-linejoin="round"/>
<path d="M135 11.1428H132.428C132.049 11.1428 131.686 10.9923 131.418 10.7244C131.15 10.4565 131 10.0932 131 9.71428C131 9.3354 131.15 8.97203 131.418 8.70412C131.686 8.43621 132.049 8.28571 132.428 8.28571C134.428 8.28571 135 11.1428 135 11.1428Z" stroke="url(#paint12_linear_1227_4317)" stroke-width="0.857143" stroke-linecap="round" stroke-linejoin="round"/>
<path d="M135 11.1428H137.571C137.95 11.1428 138.314 10.9923 138.582 10.7244C138.849 10.4565 139 10.0932 139 9.71428C139 9.3354 138.849 8.97203 138.582 8.70412C138.314 8.43621 137.95 8.28571 137.571 8.28571C135.571 8.28571 135 11.1428 135 11.1428Z" stroke="url(#paint13_linear_1227_4317)" stroke-width="0.857143" stroke-linecap="round" stroke-linejoin="round"/>
<rect x="160.179" y="4.17857" width="19.6429" height="19.6429" rx="2.67857" fill="#262626"/>
<rect x="160.179" y="4.17857" width="19.6429" height="19.6429" rx="2.67857" stroke="url(#paint14_linear_1227_4317)" stroke-width="0.357143"/>
<path d="M174.571 14V19.3714C174.571 19.5608 174.418 19.7143 174.228 19.7143H165.771C165.582 19.7143 165.428 19.5608 165.428 19.3714V14" stroke="url(#paint15_linear_1227_4317)" stroke-width="0.857143" stroke-linecap="round" stroke-linejoin="round"/>
<path d="M175.371 11.1429H164.629C164.439 11.1429 164.286 11.2964 164.286 11.4857V13.6571C164.286 13.8465 164.439 14 164.629 14H175.371C175.561 14 175.714 13.8465 175.714 13.6571V11.4857C175.714 11.2964 175.561 11.1429 175.371 11.1429Z" stroke="url(#paint16_linear_1227_4317)" stroke-width="0.857143" stroke-linecap="round" stroke-linejoin="round"/>
<path d="M170 19.7143V11.1429" stroke="url(#paint17_linear_1227_4317)" stroke-width="0.857143" stroke-linecap="round" stroke-linejoin="round"/>
<path d="M170 11.1428H167.428C167.049 11.1428 166.686 10.9923 166.418 10.7244C166.15 10.4565 166 10.0932 166 9.71428C166 9.3354 166.15 8.97203 166.418 8.70412C166.686 8.43621 167.049 8.28571 167.428 8.28571C169.428 8.28571 170 11.1428 170 11.1428Z" stroke="url(#paint18_linear_1227_4317)" stroke-width="0.857143" stroke-linecap="round" stroke-linejoin="round"/>
<path d="M170 11.1428H172.571C172.95 11.1428 173.314 10.9923 173.582 10.7244C173.849 10.4565 174 10.0932 174 9.71428C174 9.3354 173.849 8.97203 173.582 8.70412C173.314 8.43621 172.95 8.28571 172.571 8.28571C170.571 8.28571 170 11.1428 170 11.1428Z" stroke="url(#paint19_linear_1227_4317)" stroke-width="0.857143" stroke-linecap="round" stroke-linejoin="round"/>
<rect x="195.179" y="4.17857" width="19.6429" height="19.6429" rx="2.67857" fill="#262626"/>
<rect x="195.179" y="4.17857" width="19.6429" height="19.6429" rx="2.67857" stroke="url(#paint20_linear_1227_4317)" stroke-width="0.357143"/>
<path d="M209.571 14V19.3714C209.571 19.5608 209.418 19.7143 209.228 19.7143H200.771C200.582 19.7143 200.428 19.5608 200.428 19.3714V14" stroke="url(#paint21_linear_1227_4317)" stroke-width="0.857143" stroke-linecap="round" stroke-linejoin="round"/>
<path d="M210.371 11.1429H199.629C199.439 11.1429 199.286 11.2964 199.286 11.4857V13.6571C199.286 13.8465 199.439 14 199.629 14H210.371C210.561 14 210.714 13.8465 210.714 13.6571V11.4857C210.714 11.2964 210.561 11.1429 210.371 11.1429Z" stroke="url(#paint22_linear_1227_4317)" stroke-width="0.857143" stroke-linecap="round" stroke-linejoin="round"/>
<path d="M205 19.7143V11.1429" stroke="url(#paint23_linear_1227_4317)" stroke-width="0.857143" stroke-linecap="round" stroke-linejoin="round"/>
<path d="M205 11.1428H202.428C202.049 11.1428 201.686 10.9923 201.418 10.7244C201.15 10.4565 201 10.0932 201 9.71428C201 9.3354 201.15 8.97203 201.418 8.70412C201.686 8.43621 202.049 8.28571 202.428 8.28571C204.428 8.28571 205 11.1428 205 11.1428Z" stroke="url(#paint24_linear_1227_4317)" stroke-width="0.857143" stroke-linecap="round" stroke-linejoin="round"/>
<path d="M205 11.1428H207.571C207.95 11.1428 208.314 10.9923 208.582 10.7244C208.849 10.4565 209 10.0932 209 9.71428C209 9.3354 208.849 8.97203 208.582 8.70412C208.314 8.43621 207.95 8.28571 207.571 8.28571C205.571 8.28571 205 11.1428 205 11.1428Z" stroke="url(#paint25_linear_1227_4317)" stroke-width="0.857143" stroke-linecap="round" stroke-linejoin="round"/>
<rect x="230.179" y="4.17857" width="19.6429" height="19.6429" rx="2.67857" fill="#262626"/>
<rect x="230.179" y="4.17857" width="19.6429" height="19.6429" rx="2.67857" stroke="url(#paint26_linear_1227_4317)" stroke-width="0.357143"/>
<path d="M244.571 14V19.3714C244.571 19.5608 244.418 19.7143 244.228 19.7143H235.771C235.582 19.7143 235.428 19.5608 235.428 19.3714V14" stroke="url(#paint27_linear_1227_4317)" stroke-width="0.857143" stroke-linecap="round" stroke-linejoin="round"/>
<path d="M245.371 11.1429H234.629C234.439 11.1429 234.286 11.2964 234.286 11.4857V13.6571C234.286 13.8465 234.439 14 234.629 14H245.371C245.561 14 245.714 13.8465 245.714 13.6571V11.4857C245.714 11.2964 245.561 11.1429 245.371 11.1429Z" stroke="url(#paint28_linear_1227_4317)" stroke-width="0.857143" stroke-linecap="round" stroke-linejoin="round"/>
<path d="M240 19.7143V11.1429" stroke="url(#paint29_linear_1227_4317)" stroke-width="0.857143" stroke-linecap="round" stroke-linejoin="round"/>
<path d="M240 11.1428H237.428C237.049 11.1428 236.686 10.9923 236.418 10.7244C236.15 10.4565 236 10.0932 236 9.71428C236 9.3354 236.15 8.97203 236.418 8.70412C236.686 8.43621 237.049 8.28571 237.428 8.28571C239.428 8.28571 240 11.1428 240 11.1428Z" stroke="url(#paint30_linear_1227_4317)" stroke-width="0.857143" stroke-linecap="round" stroke-linejoin="round"/>
<path d="M240 11.1428H242.571C242.95 11.1428 243.314 10.9923 243.582 10.7244C243.849 10.4565 244 10.0932 244 9.71428C244 9.3354 243.849 8.97203 243.582 8.70412C243.314 8.43621 242.95 8.28571 242.571 8.28571C240.571 8.28571 240 11.1428 240 11.1428Z" stroke="url(#paint31_linear_1227_4317)" stroke-width="0.857143" stroke-linecap="round" stroke-linejoin="round"/>
<rect x="265.179" y="4.17857" width="19.6429" height="19.6429" rx="2.67857" fill="#262626"/>
<rect x="265.179" y="4.17857" width="19.6429" height="19.6429" rx="2.67857" stroke="url(#paint32_linear_1227_4317)" stroke-width="0.357143"/>
<path d="M279.571 14V19.3714C279.571 19.5608 279.418 19.7143 279.228 19.7143H270.771C270.582 19.7143 270.428 19.5608 270.428 19.3714V14" stroke="url(#paint33_linear_1227_4317)" stroke-width="0.857143" stroke-linecap="round" stroke-linejoin="round"/>
<path d="M280.371 11.1429H269.629C269.439 11.1429 269.286 11.2964 269.286 11.4857V13.6571C269.286 13.8465 269.439 14 269.629 14H280.371C280.561 14 280.714 13.8465 280.714 13.6571V11.4857C280.714 11.2964 280.561 11.1429 280.371 11.1429Z" stroke="url(#paint34_linear_1227_4317)" stroke-width="0.857143" stroke-linecap="round" stroke-linejoin="round"/>
<path d="M275 19.7143V11.1429" stroke="url(#paint35_linear_1227_4317)" stroke-width="0.857143" stroke-linecap="round" stroke-linejoin="round"/>
<path d="M275 11.1428H272.428C272.049 11.1428 271.686 10.9923 271.418 10.7244C271.15 10.4565 271 10.0932 271 9.71428C271 9.3354 271.15 8.97203 271.418 8.70412C271.686 8.43621 272.049 8.28571 272.428 8.28571C274.428 8.28571 275 11.1428 275 11.1428Z" stroke="url(#paint36_linear_1227_4317)" stroke-width="0.857143" stroke-linecap="round" stroke-linejoin="round"/>
<path d="M275 11.1428H277.571C277.95 11.1428 278.314 10.9923 278.582 10.7244C278.849 10.4565 279 10.0932 279 9.71428C279 9.3354 278.849 8.97203 278.582 8.70412C278.314 8.43621 277.95 8.28571 277.571 8.28571C275.571 8.28571 275 11.1428 275 11.1428Z" stroke="url(#paint37_linear_1227_4317)" stroke-width="0.857143" stroke-linecap="round" stroke-linejoin="round"/>
<rect x="300.25" y="0.25" width="27.5" height="27.5" rx="3.75" fill="url(#paint38_linear_1227_4317)"/>
<rect x="300.25" y="0.25" width="27.5" height="27.5" rx="3.75" stroke="url(#paint39_linear_1227_4317)" stroke-width="0.5"/>
<path d="M320.4 14V21.52C320.4 21.7851 320.185 22 319.92 22H308.08C307.815 22 307.6 21.7851 307.6 21.52V14" stroke="#191B1F" stroke-width="1.2" stroke-linecap="round" stroke-linejoin="round"/>
<path d="M321.52 10H306.48C306.215 10 306 10.2149 306 10.48V13.52C306 13.7851 306.215 14 306.48 14H321.52C321.785 14 322 13.7851 322 13.52V10.48C322 10.2149 321.785 10 321.52 10Z" stroke="#191B1F" stroke-width="1.2" stroke-linecap="round" stroke-linejoin="round"/>
<path d="M314 22V10" stroke="#191B1F" stroke-width="1.2" stroke-linecap="round" stroke-linejoin="round"/>
<path d="M314 10H310.4C309.869 10 309.361 9.78929 308.986 9.41422C308.611 9.03914 308.4 8.53043 308.4 8C308.4 7.46957 308.611 6.96086 308.986 6.58578C309.361 6.21071 309.869 6 310.4 6C313.2 6 314 10 314 10Z" stroke="#191B1F" stroke-width="1.2" stroke-linecap="round" stroke-linejoin="round"/>
<path d="M314 10H317.6C318.13 10 318.639 9.78929 319.014 9.41422C319.389 9.03914 319.6 8.53043 319.6 8C319.6 7.46957 319.389 6.96086 319.014 6.58578C318.639 6.21071 318.13 6 317.6 6C314.8 6 314 10 314 10Z" stroke="#191B1F" stroke-width="1.2" stroke-linecap="round" stroke-linejoin="round"/>
<defs>
<filter id="filter0_d_1227_4317" x="0" y="6.5" width="332" height="21" filterUnits="userSpaceOnUse" color-interpolation-filters="sRGB">
<feFlood flood-opacity="0" result="BackgroundImageFix"/>
<feColorMatrix in="SourceAlpha" type="matrix" values="0 0 0 0 0 0 0 0 0 0 0 0 0 0 0 0 0 0 127 0" result="hardAlpha"/>
<feOffset dy="4"/>
<feGaussianBlur stdDeviation="2"/>
<feComposite in2="hardAlpha" operator="out"/>
<feColorMatrix type="matrix" values="0 0 0 0 0 0 0 0 0 0 0 0 0 0 0 0 0 0 0.25 0"/>
<feBlend mode="normal" in2="BackgroundImageFix" result="effect1_dropShadow_1227_4317"/>
<feBlend mode="normal" in="SourceGraphic" in2="effect1_dropShadow_1227_4317" result="shape"/>
</filter>
<linearGradient id="paint0_linear_1227_4317" x1="47.2" y1="8.775" x2="47.9249" y2="27.0559" gradientUnits="userSpaceOnUse">
<stop stop-color="#8C421D"/>
<stop offset="0.325272" stop-color="#FBE67B"/>
<stop offset="0.535488" stop-color="#FCFBE7"/>
<stop offset="0.769917" stop-color="#F7D14E"/>
<stop offset="1" stop-color="#D4A041"/>
</linearGradient>
<linearGradient id="paint1_linear_1227_4317" x1="4" y1="1" x2="5.04193" y2="22.7927" gradientUnits="userSpaceOnUse">
<stop stop-color="#8C421D"/>
<stop offset="0.325272" stop-color="#FBE67B"/>
<stop offset="0.535488" stop-color="#FCFBE7"/>
<stop offset="0.769917" stop-color="#F7D14E"/>
<stop offset="1" stop-color="#D4A041"/>
</linearGradient>
<linearGradient id="paint2_linear_1227_4317" x1="22.6667" y1="7.5" x2="36.75" y2="21.75" gradientUnits="userSpaceOnUse">
<stop stop-color="#F7D14E"/>
<stop offset="0.185" stop-color="#FBE67B"/>
<stop offset="0.535488" stop-color="#FCFBE7"/>
<stop offset="0.769917" stop-color="#F7D14E"/>
<stop offset="1" stop-color="#D4A041"/>
</linearGradient>
<linearGradient id="paint3_linear_1227_4317" x1="25.9326" y1="11.3881" x2="31.2354" y2="18.9631" gradientUnits="userSpaceOnUse">
<stop stop-color="#F7D14E"/>
<stop offset="0.185" stop-color="#FBE67B"/>
<stop offset="0.535488" stop-color="#FCFBE7"/>
<stop offset="0.769917" stop-color="#F7D14E"/>
<stop offset="1" stop-color="#D4A041"/>
</linearGradient>
<linearGradient id="paint4_linear_1227_4317" x1="57.6667" y1="7.5" x2="71.75" y2="21.75" gradientUnits="userSpaceOnUse">
<stop stop-color="#F7D14E"/>
<stop offset="0.185" stop-color="#FBE67B"/>
<stop offset="0.535488" stop-color="#FCFBE7"/>
<stop offset="0.769917" stop-color="#F7D14E"/>
<stop offset="1" stop-color="#D4A041"/>
</linearGradient>
<linearGradient id="paint5_linear_1227_4317" x1="60.9326" y1="11.3881" x2="66.2354" y2="18.9631" gradientUnits="userSpaceOnUse">
<stop stop-color="#F7D14E"/>
<stop offset="0.185" stop-color="#FBE67B"/>
<stop offset="0.535488" stop-color="#FCFBE7"/>
<stop offset="0.769917" stop-color="#F7D14E"/>
<stop offset="1" stop-color="#D4A041"/>
</linearGradient>
<linearGradient id="paint6_linear_1227_4317" x1="92.6667" y1="7.5" x2="106.75" y2="21.75" gradientUnits="userSpaceOnUse">
<stop stop-color="#F7D14E"/>
<stop offset="0.185" stop-color="#FBE67B"/>
<stop offset="0.535488" stop-color="#FCFBE7"/>
<stop offset="0.769917" stop-color="#F7D14E"/>
<stop offset="1" stop-color="#D4A041"/>
</linearGradient>
<linearGradient id="paint7_linear_1227_4317" x1="95.9326" y1="11.3881" x2="101.235" y2="18.9631" gradientUnits="userSpaceOnUse">
<stop stop-color="#F7D14E"/>
<stop offset="0.185" stop-color="#FBE67B"/>
<stop offset="0.535488" stop-color="#FCFBE7"/>
<stop offset="0.769917" stop-color="#F7D14E"/>
<stop offset="1" stop-color="#D4A041"/>
</linearGradient>
<linearGradient id="paint8_linear_1227_4317" x1="127.667" y1="7.5" x2="141.75" y2="21.75" gradientUnits="userSpaceOnUse">
<stop stop-color="#F7D14E"/>
<stop offset="0.185" stop-color="#FBE67B"/>
<stop offset="0.535488" stop-color="#FCFBE7"/>
<stop offset="0.769917" stop-color="#F7D14E"/>
<stop offset="1" stop-color="#D4A041"/>
</linearGradient>
<linearGradient id="paint9_linear_1227_4317" x1="131.648" y1="15" x2="135.246" y2="20.8255" gradientUnits="userSpaceOnUse">
<stop stop-color="#F7D14E"/>
<stop offset="0.185" stop-color="#FBE67B"/>
<stop offset="0.535488" stop-color="#FCFBE7"/>
<stop offset="0.769917" stop-color="#F7D14E"/>
<stop offset="1" stop-color="#D4A041"/>
</linearGradient>
<linearGradient id="paint10_linear_1227_4317" x1="130.809" y1="11.6429" x2="131.747" y2="15.4354" gradientUnits="userSpaceOnUse">
<stop stop-color="#F7D14E"/>
<stop offset="0.185" stop-color="#FBE67B"/>
<stop offset="0.535488" stop-color="#FCFBE7"/>
<stop offset="0.769917" stop-color="#F7D14E"/>
<stop offset="1" stop-color="#D4A041"/>
</linearGradient>
<linearGradient id="paint11_linear_1227_4317" x1="135.133" y1="12.6429" x2="136.539" y2="12.8088" gradientUnits="userSpaceOnUse">
<stop stop-color="#F7D14E"/>
<stop offset="0.185" stop-color="#FBE67B"/>
<stop offset="0.535488" stop-color="#FCFBE7"/>
<stop offset="0.769917" stop-color="#F7D14E"/>
<stop offset="1" stop-color="#D4A041"/>
</linearGradient>
<linearGradient id="paint12_linear_1227_4317" x1="131.533" y1="8.78571" x2="133.429" y2="11.4714" gradientUnits="userSpaceOnUse">
<stop stop-color="#F7D14E"/>
<stop offset="0.185" stop-color="#FBE67B"/>
<stop offset="0.535488" stop-color="#FCFBE7"/>
<stop offset="0.769917" stop-color="#F7D14E"/>
<stop offset="1" stop-color="#D4A041"/>
</linearGradient>
<linearGradient id="paint13_linear_1227_4317" x1="135.533" y1="8.78571" x2="137.429" y2="11.4714" gradientUnits="userSpaceOnUse">
<stop stop-color="#F7D14E"/>
<stop offset="0.185" stop-color="#FBE67B"/>
<stop offset="0.535488" stop-color="#FCFBE7"/>
<stop offset="0.769917" stop-color="#F7D14E"/>
<stop offset="1" stop-color="#D4A041"/>
</linearGradient>
<linearGradient id="paint14_linear_1227_4317" x1="162.667" y1="7.5" x2="176.75" y2="21.75" gradientUnits="userSpaceOnUse">
<stop stop-color="#F7D14E"/>
<stop offset="0.185" stop-color="#FBE67B"/>
<stop offset="0.535488" stop-color="#FCFBE7"/>
<stop offset="0.769917" stop-color="#F7D14E"/>
<stop offset="1" stop-color="#D4A041"/>
</linearGradient>
<linearGradient id="paint15_linear_1227_4317" x1="166.648" y1="15" x2="170.246" y2="20.8255" gradientUnits="userSpaceOnUse">
<stop stop-color="#F7D14E"/>
<stop offset="0.185" stop-color="#FBE67B"/>
<stop offset="0.535488" stop-color="#FCFBE7"/>
<stop offset="0.769917" stop-color="#F7D14E"/>
<stop offset="1" stop-color="#D4A041"/>
</linearGradient>
<linearGradient id="paint16_linear_1227_4317" x1="165.809" y1="11.6429" x2="166.747" y2="15.4354" gradientUnits="userSpaceOnUse">
<stop stop-color="#F7D14E"/>
<stop offset="0.185" stop-color="#FBE67B"/>
<stop offset="0.535488" stop-color="#FCFBE7"/>
<stop offset="0.769917" stop-color="#F7D14E"/>
<stop offset="1" stop-color="#D4A041"/>
</linearGradient>
<linearGradient id="paint17_linear_1227_4317" x1="170.133" y1="12.6429" x2="171.539" y2="12.8088" gradientUnits="userSpaceOnUse">
<stop stop-color="#F7D14E"/>
<stop offset="0.185" stop-color="#FBE67B"/>
<stop offset="0.535488" stop-color="#FCFBE7"/>
<stop offset="0.769917" stop-color="#F7D14E"/>
<stop offset="1" stop-color="#D4A041"/>
</linearGradient>
<linearGradient id="paint18_linear_1227_4317" x1="166.533" y1="8.78571" x2="168.429" y2="11.4714" gradientUnits="userSpaceOnUse">
<stop stop-color="#F7D14E"/>
<stop offset="0.185" stop-color="#FBE67B"/>
<stop offset="0.535488" stop-color="#FCFBE7"/>
<stop offset="0.769917" stop-color="#F7D14E"/>
<stop offset="1" stop-color="#D4A041"/>
</linearGradient>
<linearGradient id="paint19_linear_1227_4317" x1="170.533" y1="8.78571" x2="172.429" y2="11.4714" gradientUnits="userSpaceOnUse">
<stop stop-color="#F7D14E"/>
<stop offset="0.185" stop-color="#FBE67B"/>
<stop offset="0.535488" stop-color="#FCFBE7"/>
<stop offset="0.769917" stop-color="#F7D14E"/>
<stop offset="1" stop-color="#D4A041"/>
</linearGradient>
<linearGradient id="paint20_linear_1227_4317" x1="197.667" y1="7.5" x2="211.75" y2="21.75" gradientUnits="userSpaceOnUse">
<stop stop-color="#F7D14E"/>
<stop offset="0.185" stop-color="#FBE67B"/>
<stop offset="0.535488" stop-color="#FCFBE7"/>
<stop offset="0.769917" stop-color="#F7D14E"/>
<stop offset="1" stop-color="#D4A041"/>
</linearGradient>
<linearGradient id="paint21_linear_1227_4317" x1="201.648" y1="15" x2="205.246" y2="20.8255" gradientUnits="userSpaceOnUse">
<stop stop-color="#F7D14E"/>
<stop offset="0.185" stop-color="#FBE67B"/>
<stop offset="0.535488" stop-color="#FCFBE7"/>
<stop offset="0.769917" stop-color="#F7D14E"/>
<stop offset="1" stop-color="#D4A041"/>
</linearGradient>
<linearGradient id="paint22_linear_1227_4317" x1="200.809" y1="11.6429" x2="201.747" y2="15.4354" gradientUnits="userSpaceOnUse">
<stop stop-color="#F7D14E"/>
<stop offset="0.185" stop-color="#FBE67B"/>
<stop offset="0.535488" stop-color="#FCFBE7"/>
<stop offset="0.769917" stop-color="#F7D14E"/>
<stop offset="1" stop-color="#D4A041"/>
</linearGradient>
<linearGradient id="paint23_linear_1227_4317" x1="205.133" y1="12.6429" x2="206.539" y2="12.8088" gradientUnits="userSpaceOnUse">
<stop stop-color="#F7D14E"/>
<stop offset="0.185" stop-color="#FBE67B"/>
<stop offset="0.535488" stop-color="#FCFBE7"/>
<stop offset="0.769917" stop-color="#F7D14E"/>
<stop offset="1" stop-color="#D4A041"/>
</linearGradient>
<linearGradient id="paint24_linear_1227_4317" x1="201.533" y1="8.78571" x2="203.429" y2="11.4714" gradientUnits="userSpaceOnUse">
<stop stop-color="#F7D14E"/>
<stop offset="0.185" stop-color="#FBE67B"/>
<stop offset="0.535488" stop-color="#FCFBE7"/>
<stop offset="0.769917" stop-color="#F7D14E"/>
<stop offset="1" stop-color="#D4A041"/>
</linearGradient>
<linearGradient id="paint25_linear_1227_4317" x1="205.533" y1="8.78571" x2="207.429" y2="11.4714" gradientUnits="userSpaceOnUse">
<stop stop-color="#F7D14E"/>
<stop offset="0.185" stop-color="#FBE67B"/>
<stop offset="0.535488" stop-color="#FCFBE7"/>
<stop offset="0.769917" stop-color="#F7D14E"/>
<stop offset="1" stop-color="#D4A041"/>
</linearGradient>
<linearGradient id="paint26_linear_1227_4317" x1="232.667" y1="7.5" x2="246.75" y2="21.75" gradientUnits="userSpaceOnUse">
<stop stop-color="#F7D14E"/>
<stop offset="0.185" stop-color="#FBE67B"/>
<stop offset="0.535488" stop-color="#FCFBE7"/>
<stop offset="0.769917" stop-color="#F7D14E"/>
<stop offset="1" stop-color="#D4A041"/>
</linearGradient>
<linearGradient id="paint27_linear_1227_4317" x1="236.648" y1="15" x2="240.246" y2="20.8255" gradientUnits="userSpaceOnUse">
<stop stop-color="#F7D14E"/>
<stop offset="0.185" stop-color="#FBE67B"/>
<stop offset="0.535488" stop-color="#FCFBE7"/>
<stop offset="0.769917" stop-color="#F7D14E"/>
<stop offset="1" stop-color="#D4A041"/>
</linearGradient>
<linearGradient id="paint28_linear_1227_4317" x1="235.809" y1="11.6429" x2="236.747" y2="15.4354" gradientUnits="userSpaceOnUse">
<stop stop-color="#F7D14E"/>
<stop offset="0.185" stop-color="#FBE67B"/>
<stop offset="0.535488" stop-color="#FCFBE7"/>
<stop offset="0.769917" stop-color="#F7D14E"/>
<stop offset="1" stop-color="#D4A041"/>
</linearGradient>
<linearGradient id="paint29_linear_1227_4317" x1="240.133" y1="12.6429" x2="241.539" y2="12.8088" gradientUnits="userSpaceOnUse">
<stop stop-color="#F7D14E"/>
<stop offset="0.185" stop-color="#FBE67B"/>
<stop offset="0.535488" stop-color="#FCFBE7"/>
<stop offset="0.769917" stop-color="#F7D14E"/>
<stop offset="1" stop-color="#D4A041"/>
</linearGradient>
<linearGradient id="paint30_linear_1227_4317" x1="236.533" y1="8.78571" x2="238.429" y2="11.4714" gradientUnits="userSpaceOnUse">
<stop stop-color="#F7D14E"/>
<stop offset="0.185" stop-color="#FBE67B"/>
<stop offset="0.535488" stop-color="#FCFBE7"/>
<stop offset="0.769917" stop-color="#F7D14E"/>
<stop offset="1" stop-color="#D4A041"/>
</linearGradient>
<linearGradient id="paint31_linear_1227_4317" x1="240.533" y1="8.78571" x2="242.429" y2="11.4714" gradientUnits="userSpaceOnUse">
<stop stop-color="#F7D14E"/>
<stop offset="0.185" stop-color="#FBE67B"/>
<stop offset="0.535488" stop-color="#FCFBE7"/>
<stop offset="0.769917" stop-color="#F7D14E"/>
<stop offset="1" stop-color="#D4A041"/>
</linearGradient>
<linearGradient id="paint32_linear_1227_4317" x1="267.667" y1="7.5" x2="281.75" y2="21.75" gradientUnits="userSpaceOnUse">
<stop stop-color="#F7D14E"/>
<stop offset="0.185" stop-color="#FBE67B"/>
<stop offset="0.535488" stop-color="#FCFBE7"/>
<stop offset="0.769917" stop-color="#F7D14E"/>
<stop offset="1" stop-color="#D4A041"/>
</linearGradient>
<linearGradient id="paint33_linear_1227_4317" x1="271.648" y1="15" x2="275.246" y2="20.8255" gradientUnits="userSpaceOnUse">
<stop stop-color="#F7D14E"/>
<stop offset="0.185" stop-color="#FBE67B"/>
<stop offset="0.535488" stop-color="#FCFBE7"/>
<stop offset="0.769917" stop-color="#F7D14E"/>
<stop offset="1" stop-color="#D4A041"/>
</linearGradient>
<linearGradient id="paint34_linear_1227_4317" x1="270.809" y1="11.6429" x2="271.747" y2="15.4354" gradientUnits="userSpaceOnUse">
<stop stop-color="#F7D14E"/>
<stop offset="0.185" stop-color="#FBE67B"/>
<stop offset="0.535488" stop-color="#FCFBE7"/>
<stop offset="0.769917" stop-color="#F7D14E"/>
<stop offset="1" stop-color="#D4A041"/>
</linearGradient>
<linearGradient id="paint35_linear_1227_4317" x1="275.133" y1="12.6429" x2="276.539" y2="12.8088" gradientUnits="userSpaceOnUse">
<stop stop-color="#F7D14E"/>
<stop offset="0.185" stop-color="#FBE67B"/>
<stop offset="0.535488" stop-color="#FCFBE7"/>
<stop offset="0.769917" stop-color="#F7D14E"/>
<stop offset="1" stop-color="#D4A041"/>
</linearGradient>
<linearGradient id="paint36_linear_1227_4317" x1="271.533" y1="8.78571" x2="273.429" y2="11.4714" gradientUnits="userSpaceOnUse">
<stop stop-color="#F7D14E"/>
<stop offset="0.185" stop-color="#FBE67B"/>
<stop offset="0.535488" stop-color="#FCFBE7"/>
<stop offset="0.769917" stop-color="#F7D14E"/>
<stop offset="1" stop-color="#D4A041"/>
</linearGradient>
<linearGradient id="paint37_linear_1227_4317" x1="275.533" y1="8.78571" x2="277.429" y2="11.4714" gradientUnits="userSpaceOnUse">
<stop stop-color="#F7D14E"/>
<stop offset="0.185" stop-color="#FBE67B"/>
<stop offset="0.535488" stop-color="#FCFBE7"/>
<stop offset="0.769917" stop-color="#F7D14E"/>
<stop offset="1" stop-color="#D4A041"/>
</linearGradient>
<linearGradient id="paint38_linear_1227_4317" x1="320.767" y1="25.9" x2="302.333" y2="3.96667" gradientUnits="userSpaceOnUse">
<stop stop-color="#A8A8A6"/>
<stop offset="0.451645" stop-color="#696969"/>
<stop offset="0.665" stop-color="#F9F8F6"/>
<stop offset="0.825" stop-color="#D4D4D4"/>
<stop offset="1" stop-color="#7F7F7F"/>
</linearGradient>
<linearGradient id="paint39_linear_1227_4317" x1="320.767" y1="25.9" x2="302.333" y2="3.96667" gradientUnits="userSpaceOnUse">
<stop stop-color="#A8A8A6"/>
<stop offset="0.451645" stop-color="#696969"/>
<stop offset="0.665" stop-color="#F9F8F6"/>
<stop offset="0.825" stop-color="#D4D4D4"/>
<stop offset="1" stop-color="#7F7F7F"/>
</linearGradient>
</defs>
</svg>
