<svg width="28" height="22" viewBox="0 0 28 22" fill="none" xmlns="http://www.w3.org/2000/svg">
<g id="Icon">
<path id="Vector" d="M10.4997 20.5H17.4997M13.9997 16.125V20.5M21.6796 10H22.7497C23.678 10 24.5682 9.63125 25.2246 8.97487C25.881 8.3185 26.2497 7.42826 26.2497 6.5V4.75C26.2497 4.51794 26.1576 4.29538 25.9935 4.13128C25.8294 3.96719 25.6068 3.875 25.3747 3.875H21.8747M6.33955 10H5.23584C4.30758 10 3.41734 9.63125 2.76097 8.97487C2.10459 8.3185 1.73584 7.42826 1.73584 6.5V4.75C1.73584 4.51794 1.82803 4.29538 1.99212 4.13128C2.15622 3.96719 2.37878 3.875 2.61084 3.875H6.11084M6.12474 2.125V8.15114C6.12474 12.4934 9.59791 16.0926 13.94 16.1248C14.9792 16.1327 16.0096 15.9348 16.972 15.5426C17.9343 15.1504 18.8095 14.5716 19.5471 13.8395C20.2846 13.1075 20.8701 12.2367 21.2696 11.2774C21.6691 10.3181 21.8747 9.28918 21.8747 8.25V2.125C21.8747 1.89294 21.7826 1.67038 21.6185 1.50628C21.4544 1.34219 21.2318 1.25 20.9997 1.25H6.99974C6.76768 1.25 6.54512 1.34219 6.38102 1.50628C6.21693 1.67038 6.12474 1.89294 6.12474 2.125Z" stroke="url(#paint0_linear_1248_678)" stroke-width="1.75" stroke-linecap="round" stroke-linejoin="round"/>
</g>
<defs>
<linearGradient id="paint0_linear_1248_678" x1="-7" y1="-6" x2="15.0154" y2="23.7077" gradientUnits="userSpaceOnUse">
<stop stop-color="#8C421D"/>
<stop offset="0.325272" stop-color="#FBE67B"/>
<stop offset="0.535488" stop-color="#FCFBE7"/>
<stop offset="0.769917" stop-color="#F7D14E"/>
<stop offset="1" stop-color="#D4A041"/>
</linearGradient>
</defs>
</svg>
