{"accessors" : [{"bufferView" : 0, "byteOffset" : 0, "componentType" : 5123, "count" : 372, "type" : "SCALAR", "max" : [311], "min" : [0]}, {"bufferView" : 1, "byteOffset" : 0, "componentType" : 5126, "count" : 312, "type" : "VEC3", "max" : [1, 1, 0.04777904599905014], "min" : [-1, -1, -0.1253623068332672], "name" : "POSITION"}, {"bufferView" : 0, "byteOffset" : 744, "componentType" : 5123, "count" : 192, "type" : "SCALAR", "max" : [158], "min" : [0]}, {"bufferView" : 2, "byteOffset" : 0, "componentType" : 5126, "count" : 159, "type" : "VEC3", "max" : [0.9722958207130432, 0.9722958207130432, 0.027478255331516266], "min" : [-0.9722958207130432, -0.9722957611083984, -0.10851103812456131], "name" : "POSITION"}, {"bufferView" : 0, "byteOffset" : 1128, "componentType" : 5123, "count" : 36, "type" : "SCALAR", "max" : [30], "min" : [0]}, {"bufferView" : 3, "byteOffset" : 0, "componentType" : 5126, "count" : 31, "type" : "VEC3", "max" : [0.32961130142211914, 0.46614065766334534, 0.04777904599905014], "min" : [-0.4661406874656677, -0.39787593483924866, -0.1253623068332672], "name" : "POSITION"}], "asset" : {"generator" : "Aspose.3D 24.1.0", "version" : "2.0"}, "buffers" : [{"uri" : "data:application/octet-stream;base64,", "byteLength" : 8416}], "bufferViews" : [{"buffer" : 0, "byteOffset" : 0, "byteLength" : 1200, "target" : 34963}, {"buffer" : 0, "byteOffset" : 1204, "byteLength" : 4464, "byteStride" : 12, "target" : 34962}, {"buffer" : 0, "byteOffset" : 5672, "byteLength" : 2304, "byteStride" : 12, "target" : 34962}, {"buffer" : 0, "byteOffset" : 7980, "byteLength" : 432, "byteStride" : 12, "target" : 34962}], "materials" : [{"name" : "Gold", "pbrMetallicRoughness" : {"baseColorFactor" : [0.9803921568627451, 0.6078431372549019, 0, 1], "metallicFactor" : 1, "roughnessFactor" : 1}, "emissiveFactor" : [0, 0, 0], "alphaMode" : "OPAQUE", "doubleSided" : false}, {"name" : "Gold_2", "pbrMetallicRoughness" : {"baseColorFactor" : [0.9607843137254902, 0.25882352941176473, 0, 1], "metallicFactor" : 1, "roughnessFactor" : 1}, "emissiveFactor" : [0, 0, 0], "alphaMode" : "OPAQUE", "doubleSided" : false}, {"name" : "Gold_3", "pbrMetallicRoughness" : {"baseColorFactor" : [0.9725490196078431, 0.7450980392156863, 0.0784313725490196, 1], "metallicFactor" : 1, "roughnessFactor" : 1}, "emissiveFactor" : [0, 0, 0], "alphaMode" : "OPAQUE", "doubleSided" : false}], "meshes" : [{"primitives" : [{"attributes" : {"POSITION" : 1}, "indices" : 0, "material" : 0, "mode" : 4}, {"attributes" : {"POSITION" : 3}, "indices" : 2, "material" : 1, "mode" : 4}, {"attributes" : {"POSITION" : 5}, "indices" : 4, "material" : 2, "mode" : 4}], "name" : "Circle"}], "nodes" : [{"mesh" : 0, "name" : "Circle"}], "scene" : 0, "scenes" : [{"nodes" : [0]}]}