{
  "asset": {
    "generator": "Khronos glTF Blender I/O v1.6.16",
    "version": "2.0"
  },
  "scene": 0,
  "scenes": [
    {
      "name": "Scene",
      "nodes": [
        0
      ]
    }
  ],
  "nodes": [
    {
      "mesh": 0,
      "name": "sphere_gltf"
    }
  ],
  "materials": [
    {
      "doubleSided": true,
      "name": "wood_planks_grey",
      "normalTexture": {
        "index": 0
      },
      "pbrMetallicRoughness": {
        "baseColorTexture": {
          "index": 1
        },
        "metallicFactor": 0,
        "metallicRoughnessTexture": {
          "index": 2
        }
      }
    }
  ],
  "meshes": [
    {
      "name": "Sphere.001",
      "primitives": [
        {
          "attributes": {
            "POSITION": 0,
            "NORMAL": 1,
            "TEXCOORD_0": 2
          },
          "indices": 3,
          "material": 0
        }
      ]
    }
  ],
  "textures": [
    {
      "sampler": 0,
      "source": 0
    },
    {
      "sampler": 0,
      "source": 1
    },
    {
      "sampler": 0,
      "source": 2
    }
  ],
  "images": [
    {
      "mimeType": "image/jpeg",
      "name": "wood_planks_grey_nor_gl_8k",
      "uri": "textures/wood_planks_grey_nor_gl_4k.jpg"
    },
    {
      "mimeType": "image/jpeg",
      "name": "wood_planks_grey_diff_8k",
      "uri": "textures/wood_planks_grey_diff_4k.jpg"
    },
    {
      "mimeType": "image/jpeg",
      "name": "wood_planks_grey_arm_8k",
      "uri": "textures/wood_planks_grey_arm_4k.jpg"
    }
  ],
  "accessors": [
    {
      "bufferView": 0,
      "componentType": 5126,
      "count": 53873,
      "max": [
        0.7517193555831909,
        0.7516002655029297,
        0.7530773878097534
      ],
      "min": [
        -0.7517023682594299,
        -0.7517228722572327,
        -0.7530779242515564
      ],
      "type": "VEC3"
    },
    {
      "bufferView": 1,
      "componentType": 5126,
      "count": 53873,
      "type": "VEC3"
    },
    {
      "bufferView": 2,
      "componentType": 5126,
      "count": 53873,
      "type": "VEC2"
    },
    {
      "bufferView": 3,
      "componentType": 5123,
      "count": 322170,
      "type": "SCALAR"
    }
  ],
  "bufferViews": [
    {
      "buffer": 0,
      "byteLength": 646476,
      "byteOffset": 0
    },
    {
      "buffer": 0,
      "byteLength": 646476,
      "byteOffset": 646476
    },
    {
      "buffer": 0,
      "byteLength": 430984,
      "byteOffset": 1292952
    },
    {
      "buffer": 0,
      "byteLength": 644340,
      "byteOffset": 1723936
    }
  ],
  "samplers": [
    {
      "magFilter": 9729,
      "minFilter": 9987
    }
  ],
  "buffers": [
    {
      "byteLength": 2368276,
      "uri": "wood_planks_grey.bin"
    }
  ]
}